<svg xmlns="http://www.w3.org/2000/svg">
    <symbol id="logo" viewBox="0 0 162 34">
        <g>
            <path d="M7.568 33.288C5.312 33.288 3.5 32.58 2.132 31.164C0.788 29.748 0.116 27.804 0.116 25.332V11.076C0.116 8.004 0.728 5.688 1.952 4.128C3.176 2.568 5.096 1.788 7.712 1.788C9.992 1.788 11.828 2.412 13.22 3.66C14.612 4.908 15.308 6.708 15.308 9.06V14.388H9.152V9.816C9.152 8.928 9.044 8.316 8.828 7.98C8.612 7.644 8.24 7.476 7.712 7.476C7.16 7.476 6.776 7.668 6.56 8.052C6.368 8.436 6.272 9 6.272 9.744V25.26C6.272 26.076 6.392 26.676 6.632 27.06C6.872 27.42 7.232 27.6 7.712 27.6C8.672 27.6 9.152 26.82 9.152 25.26V19.68H15.38V25.512C15.38 30.696 12.776 33.288 7.568 33.288ZM103.473 33V8.016H99.8014V2.076H113.337V8.016H109.665V33H103.473Z" fill="#D99734"/>
<path d="M17.3108 6.648H23.6108V9.564C23.9228 8.532 24.4628 7.74 25.2308 7.188C26.0228 6.612 26.9948 6.324 28.1468 6.324V11.58C27.2588 11.58 26.2748 11.712 25.1948 11.976C24.1388 12.216 23.6108 12.504 23.6108 12.84V33H17.3108V6.648ZM29.6498 4.884V0.491998H35.9498V4.884H29.6498ZM29.6498 33V6.648H35.9498V33H29.6498ZM38.4397 6.648H44.5957V9.708C44.8837 8.58 45.3757 7.74 46.0717 7.188C46.7677 6.636 47.7517 6.36 49.0237 6.36C50.0557 6.36 50.9437 6.6 51.6877 7.08C52.4557 7.536 52.9957 8.172 53.3077 8.988C53.8357 8.076 54.4237 7.416 55.0717 7.008C55.7197 6.576 56.6197 6.36 57.7717 6.36C59.8357 6.36 61.2637 6.996 62.0557 8.268C62.8717 9.516 63.2797 11.34 63.2797 13.74L63.2077 33H56.8717V13.632C56.8717 11.928 56.4397 11.076 55.5757 11.076C54.9757 11.076 54.5437 11.376 54.2797 11.976C54.0157 12.552 53.8837 13.248 53.8837 14.064V33H47.5837V13.632C47.5837 12.888 47.4997 12.288 47.3317 11.832C47.1877 11.376 46.8637 11.148 46.3597 11.148C45.7117 11.148 45.2557 11.472 44.9917 12.12C44.7277 12.744 44.5957 13.5 44.5957 14.388V33H38.4397V6.648ZM73.1009 33.288C70.3889 33.288 68.4449 32.544 67.2689 31.056C66.0929 29.568 65.5049 27.348 65.5049 24.396V13.812C65.5049 11.388 66.2009 9.54 67.5929 8.268C68.9849 6.996 70.9289 6.36 73.4249 6.36C78.4889 6.36 81.0209 8.844 81.0209 13.812V15.72C81.0209 17.64 80.9969 19.2 80.9489 20.4H71.8049V25.512C71.8049 26.424 71.9009 27.144 72.0929 27.672C72.2849 28.176 72.6929 28.428 73.3169 28.428C73.7969 28.428 74.1329 28.284 74.3249 27.996C74.5409 27.708 74.6609 27.384 74.6849 27.024C74.7329 26.64 74.7569 26.088 74.7569 25.368V22.812H81.0209V24.324C81.0209 27.396 80.4209 29.664 79.2209 31.128C78.0449 32.568 76.0049 33.288 73.1009 33.288ZM74.7569 17.268V13.884C74.7569 11.988 74.2889 11.04 73.3529 11.04C72.2969 11.04 71.7689 11.988 71.7689 13.884V17.268H74.7569ZM88.0871 33.288C86.0471 33.288 84.6431 32.616 83.8751 31.272C83.1311 29.904 82.7591 27.96 82.7591 25.44C82.7591 23.376 83.0231 21.792 83.5511 20.688C84.1031 19.584 84.8591 18.78 85.8191 18.276C86.7791 17.748 88.2431 17.172 90.2111 16.548L91.9391 15.972V15.9V13.272C91.9391 12.576 91.7951 12.048 91.5071 11.688C91.2431 11.304 90.9191 11.112 90.5351 11.112C90.1991 11.112 89.8991 11.268 89.6351 11.58C89.3951 11.892 89.2751 12.312 89.2751 12.84V14.424H83.1551V13.56C83.1551 10.968 83.7551 9.12 84.9551 8.016C86.1791 6.912 88.1591 6.36 90.8951 6.36C93.0791 6.36 94.8551 6.936 96.2231 8.088C97.5911 9.216 98.2751 10.824 98.2751 12.912V33H92.0111V29.868C91.6991 30.948 91.1951 31.788 90.4991 32.388C89.8271 32.988 89.0231 33.288 88.0871 33.288ZM90.5711 28.392C91.0511 28.392 91.3871 28.2 91.5791 27.816C91.7951 27.408 91.9031 26.916 91.9031 26.34V18.996C90.9671 19.356 90.2711 19.812 89.8151 20.364C89.3831 20.916 89.1671 21.684 89.1671 22.668V26.052C89.1671 27.612 89.6351 28.392 90.5711 28.392ZM122.643 33.288C117.387 33.288 114.759 30.564 114.759 25.116V14.532C114.759 12.036 115.455 10.056 116.847 8.592C118.263 7.104 120.195 6.36 122.643 6.36C125.091 6.36 127.011 7.104 128.403 8.592C129.819 10.056 130.527 12.036 130.527 14.532V25.116C130.527 30.564 127.899 33.288 122.643 33.288ZM122.643 28.428C123.147 28.428 123.519 28.248 123.759 27.888C123.999 27.528 124.119 27.036 124.119 26.412V13.524C124.119 11.988 123.627 11.22 122.643 11.22C121.659 11.22 121.167 11.988 121.167 13.524V26.412C121.167 27.036 121.287 27.528 121.527 27.888C121.767 28.248 122.139 28.428 122.643 28.428ZM137.945 33.288C135.977 33.288 134.621 32.7 133.877 31.524C133.157 30.348 132.797 28.596 132.797 26.268V6.648H139.133V25.008C139.133 25.176 139.133 25.632 139.133 26.376C139.133 27.096 139.241 27.612 139.457 27.924C139.697 28.212 140.057 28.356 140.537 28.356C141.185 28.356 141.593 28.092 141.761 27.564C141.929 27.012 142.013 26.232 142.013 25.224V25.008L142.049 6.648H148.313V33H142.013V30.192C141.581 31.296 141.077 32.088 140.501 32.568C139.925 33.048 139.073 33.288 137.945 33.288ZM150.834 6.648H157.134V9.564C157.446 8.532 157.986 7.74 158.754 7.188C159.546 6.612 160.518 6.324 161.67 6.324V11.58C160.782 11.58 159.798 11.712 158.718 11.976C157.662 12.216 157.134 12.504 157.134 12.84V33H150.834V6.648Z" />
        </g>
    </symbol>
    <symbol id="logo-dark" viewBox="0 0 162 34">
        <g>
            <path d="M7.568 33.288C5.312 33.288 3.5 32.58 2.132 31.164C0.788 29.748 0.116 27.804 0.116 25.332V11.076C0.116 8.004 0.728 5.688 1.952 4.128C3.176 2.568 5.096 1.788 7.712 1.788C9.992 1.788 11.828 2.412 13.22 3.66C14.612 4.908 15.308 6.708 15.308 9.06V14.388H9.152V9.816C9.152 8.928 9.044 8.316 8.828 7.98C8.612 7.644 8.24 7.476 7.712 7.476C7.16 7.476 6.776 7.668 6.56 8.052C6.368 8.436 6.272 9 6.272 9.744V25.26C6.272 26.076 6.392 26.676 6.632 27.06C6.872 27.42 7.232 27.6 7.712 27.6C8.672 27.6 9.152 26.82 9.152 25.26V19.68H15.38V25.512C15.38 30.696 12.776 33.288 7.568 33.288ZM103.473 33V8.016H99.8014V2.076H113.337V8.016H109.665V33H103.473Z" fill="#66676D"/>
<path d="M17.3108 6.648H23.6108V9.564C23.9228 8.532 24.4628 7.74 25.2308 7.188C26.0228 6.612 26.9948 6.324 28.1468 6.324V11.58C27.2588 11.58 26.2748 11.712 25.1948 11.976C24.1388 12.216 23.6108 12.504 23.6108 12.84V33H17.3108V6.648ZM29.6498 4.884V0.491998H35.9498V4.884H29.6498ZM29.6498 33V6.648H35.9498V33H29.6498ZM38.4397 6.648H44.5957V9.708C44.8837 8.58 45.3757 7.74 46.0717 7.188C46.7677 6.636 47.7517 6.36 49.0237 6.36C50.0557 6.36 50.9437 6.6 51.6877 7.08C52.4557 7.536 52.9957 8.172 53.3077 8.988C53.8357 8.076 54.4237 7.416 55.0717 7.008C55.7197 6.576 56.6197 6.36 57.7717 6.36C59.8357 6.36 61.2637 6.996 62.0557 8.268C62.8717 9.516 63.2797 11.34 63.2797 13.74L63.2077 33H56.8717V13.632C56.8717 11.928 56.4397 11.076 55.5757 11.076C54.9757 11.076 54.5437 11.376 54.2797 11.976C54.0157 12.552 53.8837 13.248 53.8837 14.064V33H47.5837V13.632C47.5837 12.888 47.4997 12.288 47.3317 11.832C47.1877 11.376 46.8637 11.148 46.3597 11.148C45.7117 11.148 45.2557 11.472 44.9917 12.12C44.7277 12.744 44.5957 13.5 44.5957 14.388V33H38.4397V6.648ZM73.1009 33.288C70.3889 33.288 68.4449 32.544 67.2689 31.056C66.0929 29.568 65.5049 27.348 65.5049 24.396V13.812C65.5049 11.388 66.2009 9.54 67.5929 8.268C68.9849 6.996 70.9289 6.36 73.4249 6.36C78.4889 6.36 81.0209 8.844 81.0209 13.812V15.72C81.0209 17.64 80.9969 19.2 80.9489 20.4H71.8049V25.512C71.8049 26.424 71.9009 27.144 72.0929 27.672C72.2849 28.176 72.6929 28.428 73.3169 28.428C73.7969 28.428 74.1329 28.284 74.3249 27.996C74.5409 27.708 74.6609 27.384 74.6849 27.024C74.7329 26.64 74.7569 26.088 74.7569 25.368V22.812H81.0209V24.324C81.0209 27.396 80.4209 29.664 79.2209 31.128C78.0449 32.568 76.0049 33.288 73.1009 33.288ZM74.7569 17.268V13.884C74.7569 11.988 74.2889 11.04 73.3529 11.04C72.2969 11.04 71.7689 11.988 71.7689 13.884V17.268H74.7569ZM88.0871 33.288C86.0471 33.288 84.6431 32.616 83.8751 31.272C83.1311 29.904 82.7591 27.96 82.7591 25.44C82.7591 23.376 83.0231 21.792 83.5511 20.688C84.1031 19.584 84.8591 18.78 85.8191 18.276C86.7791 17.748 88.2431 17.172 90.2111 16.548L91.9391 15.972V15.9V13.272C91.9391 12.576 91.7951 12.048 91.5071 11.688C91.2431 11.304 90.9191 11.112 90.5351 11.112C90.1991 11.112 89.8991 11.268 89.6351 11.58C89.3951 11.892 89.2751 12.312 89.2751 12.84V14.424H83.1551V13.56C83.1551 10.968 83.7551 9.12 84.9551 8.016C86.1791 6.912 88.1591 6.36 90.8951 6.36C93.0791 6.36 94.8551 6.936 96.2231 8.088C97.5911 9.216 98.2751 10.824 98.2751 12.912V33H92.0111V29.868C91.6991 30.948 91.1951 31.788 90.4991 32.388C89.8271 32.988 89.0231 33.288 88.0871 33.288ZM90.5711 28.392C91.0511 28.392 91.3871 28.2 91.5791 27.816C91.7951 27.408 91.9031 26.916 91.9031 26.34V18.996C90.9671 19.356 90.2711 19.812 89.8151 20.364C89.3831 20.916 89.1671 21.684 89.1671 22.668V26.052C89.1671 27.612 89.6351 28.392 90.5711 28.392ZM122.643 33.288C117.387 33.288 114.759 30.564 114.759 25.116V14.532C114.759 12.036 115.455 10.056 116.847 8.592C118.263 7.104 120.195 6.36 122.643 6.36C125.091 6.36 127.011 7.104 128.403 8.592C129.819 10.056 130.527 12.036 130.527 14.532V25.116C130.527 30.564 127.899 33.288 122.643 33.288ZM122.643 28.428C123.147 28.428 123.519 28.248 123.759 27.888C123.999 27.528 124.119 27.036 124.119 26.412V13.524C124.119 11.988 123.627 11.22 122.643 11.22C121.659 11.22 121.167 11.988 121.167 13.524V26.412C121.167 27.036 121.287 27.528 121.527 27.888C121.767 28.248 122.139 28.428 122.643 28.428ZM137.945 33.288C135.977 33.288 134.621 32.7 133.877 31.524C133.157 30.348 132.797 28.596 132.797 26.268V6.648H139.133V25.008C139.133 25.176 139.133 25.632 139.133 26.376C139.133 27.096 139.241 27.612 139.457 27.924C139.697 28.212 140.057 28.356 140.537 28.356C141.185 28.356 141.593 28.092 141.761 27.564C141.929 27.012 142.013 26.232 142.013 25.224V25.008L142.049 6.648H148.313V33H142.013V30.192C141.581 31.296 141.077 32.088 140.501 32.568C139.925 33.048 139.073 33.288 137.945 33.288ZM150.834 6.648H157.134V9.564C157.446 8.532 157.986 7.74 158.754 7.188C159.546 6.612 160.518 6.324 161.67 6.324V11.58C160.782 11.58 159.798 11.712 158.718 11.976C157.662 12.216 157.134 12.504 157.134 12.84V33H150.834V6.648Z" fill="#9A9999"/>
        </g>
    </symbol>
    <symbol id="cansel" viewBox="0 0 20 20">
    <g>

<path d="M10 0C4.47714 0 0 4.47714 0 10C0 15.5229 4.47714 20 10 20C15.5229 20 20 15.5229 20 10C19.9936 4.4798 15.5202 0.00641129 10 0ZM10 19.3548C4.83347 19.3548 0.645161 15.1665 0.645161 10C0.645161 4.83347 4.83347 0.645161 10 0.645161C15.1665 0.645161 19.3548 4.83347 19.3548 10C19.3492 15.1642 15.1642 19.3492 10 19.3548Z" fill="#D99734"/>
<path d="M14.5622 5.43805C14.4362 5.31212 14.232 5.31212 14.1061 5.43805L10.0003 9.54386L5.89445 5.43805C5.7707 5.30991 5.56647 5.30636 5.43833 5.43011C5.31018 5.55386 5.30663 5.75809 5.43038 5.88624C5.43296 5.88894 5.43562 5.89156 5.43833 5.89418L9.54413 9.99999L5.43833 14.1058C5.31018 14.2296 5.30663 14.4338 5.43042 14.5619C5.55421 14.6901 5.75841 14.6936 5.88655 14.5698C5.88925 14.5672 5.89187 14.5646 5.89445 14.5619L10.0003 10.4561L14.1061 14.5619C14.2342 14.6857 14.4384 14.6822 14.5622 14.554C14.683 14.429 14.683 14.2308 14.5622 14.1058L10.4564 9.99999L14.5622 5.89418C14.6881 5.76821 14.6881 5.56402 14.5622 5.43805Z" fill="#D99734"/>
</g>
    </symbol>
</svg>

